<?xml version="1.0" encoding="utf-8"?>
<!-- Generator: Adobe Illustrator 18.0.0, SVG Export Plug-In . SVG Version: 6.00 Build 0)  -->
<!DOCTYPE svg PUBLIC "-//W3C//DTD SVG 1.1//EN" "http://www.w3.org/Graphics/SVG/1.1/DTD/svg11.dtd">
<svg version="1.1" id="Layer_1" xmlns="http://www.w3.org/2000/svg" xmlns:xlink="http://www.w3.org/1999/xlink" x="0px" y="0px"
	 viewBox="0 0 1700 1400" enable-background="new 0 0 1700 1400" xml:space="preserve">
<g>
	<defs>
		<rect id="SVGID_3_" width="1700" height="1400"/>
	</defs>
	<clipPath id="SVGID_2_">
		<use xlink:href="#SVGID_3_"  overflow="visible"/>
	</clipPath>
	<g clip-path="url(#SVGID_2_)">
		<g>
			<path fill="#93CBEA" d="M619.1,393L773,437.8l122.7,184.5l163.5,69.9c3.3-5.4,6.2-11,8.7-16.9l32.6-76
				c16.5-38.3,49.1-65.4,87.1-75.8l-126-61.7l-39-108.9l-99.9-36l34.3-128l-112,98L619.1,393z"/>
			<path fill="#93CBEA" d="M472.5,739.3L341,577.3l74.6-139.5L324.8,353L285,233l56-84l-116.3,52l-31.6,152L111,406L77,577.3l-77,51
				v521.8l206-69.3l30.3-12.5c71.4-29.5,138-69.4,197.7-118.5l13.7-11.2c14.6-12,29.7-23.5,45.1-34.4l-77.8-56L472.5,739.3z"/>
			<path fill="#CCF1FC" d="M1153.9,353L957.1,189l-34.3,128l99.9,36l39,108.9l126,61.7c21.6-6,45-6.5,68.1-0.6l0,0
				c25.7,6.5,52.8,5.3,77.8-3.7l23-8.3c35.2-12.6,65.6-34.6,88.4-63L1253,333L1153.9,353z"/>
			<path fill="#CCF1FC" d="M773,437.8L536.8,369l-20.2-82l-119.7-34L341,149l-56,84l39.8,120l90.8,84.8L341,577.3l131.5,161.9
				L415,848.2l77.8,56c62.9-44.4,132-79.4,205.3-103.7v0c53.8-17.8,109.4-29.7,165.8-35.5l95.3-9.7c41.7-4.3,78.5-27.9,100-63
				l-163.5-69.9L773,437.8z"/>
			<g>
				<polygon fill="none" points="1700,85.1 1700,85.1 1700,85.1 				"/>
				<path fill="#93CBEA" d="M1493,189l-44.6,140l-99.4,61.6l95.8,57.5c17.9-22.2,31.1-48.4,38.2-76.9v0
					c9.9-39.5,31.5-74.8,61.7-101.4L1507,249L1493,189z"/>
				<path fill="#CCF1FC" d="M1573,166.2l-80,22.8l14,60l37.7,20.7c7.3-6.5,15.1-12.4,23.4-17.8l44.6-29L1580,189L1573,166.2z"/>
				<polygon fill="#FFFFFF" points="1448.4,329 1493,189 1573,166.2 1589,97 1655.5,33 1700,85.1 1700,0 0,0 0,628.3 77,577.3 
					111,406 193.1,353 224.7,201 341,149 396.9,253 516.6,287 536.8,369 619.1,393 845.1,287 957.1,189 1153.9,353 1253,333 
					1444.8,448 1349,390.6 				"/>
				<polygon fill="#FFFFFF" points="1655.5,33 1700,85.1 1700,85.1 				"/>
				<polygon fill="#93CBEA" points="1637.2,131 1619,95 1655.5,33 1589,97 1573,166.2 1580,189 1612.8,222.9 1653.3,196.5 1635,177 
									"/>
				<polygon fill="#CCF1FC" points="1619,95 1637.2,131 1635,177 1653.3,196.5 1700,166.2 1700,85.1 1655.5,33 				"/>
			</g>
		</g>
		<polygon fill="#2660A3" points="278.8,389.1 106.1,1116 278.8,1116 451.5,1116 		"/>
		<polygon fill="#2D73AE" points="126.6,622.3 -25.5,1262.9 126.6,1262.9 278.8,1262.9 		"/>
		<polygon fill="#2D73AE" points="451.5,581.4 299.3,1222 451.5,1222 603.6,1222 		"/>
		<polygon fill="#2D73AE" points="733.2,527.9 650,878.3 733.2,878.3 816.5,878.3 		"/>
		<polygon fill="#2660A3" points="845.1,572.1 761.8,922.5 845.1,922.5 928.3,922.5 		"/>
		<polygon fill="#2660A3" points="1349,275.1 1265.8,625.4 1349,625.4 1432.2,625.4 		"/>
		<polygon fill="#2D73AE" points="1288.2,213.9 1205,564.3 1288.2,564.3 1371.5,564.3 		"/>
		<polygon fill="#2D73AE" points="1437,272.8 1353.8,623.2 1437,623.2 1520.2,623.2 		"/>
	</g>
	<path clip-path="url(#SVGID_2_)" fill="#C4E3FA" d="M172.2,1328.6c33.6-33.1,69.2-64.1,106.5-92.9c26.2-20.2,53.5-39.5,74.8-64.8
		c21.3-25.3,35.7-61.3,32.1-94.1c-5.1,32.3-28.6,59.2-55.8,77.3c-27.3,18.1-58.5,29-88.6,41.9C149,1235.7,66.1,1296.6,0,1372.1v27.9
		h109.8C127.8,1374.1,149.7,1350.8,172.2,1328.6z"/>
	<path clip-path="url(#SVGID_2_)" fill="#C4E3FA" d="M1562.6,460c-6,23.7-3.3,48.9-9.8,72.4c-6.7,24-22.5,44.3-38,63.8
		c-59.6,75.4-119.2,150.9-178.9,226.3c73.1-48.7,146.2-97.5,219.3-146.2c39.9-26.6,83.7-59.2,89.1-106.9
		c3.6-31.7-11.1-64.7-1.3-95.1c8.4-25.8,31-41.3,56.9-52.1V353c-23,5.9-45.6,13.3-66.5,24.5C1600.6,395.1,1571.7,423.8,1562.6,460z"
		/>
	<path clip-path="url(#SVGID_2_)" fill="#C4E3FA" d="M1546.6,911.8c-69,30.6-142.3,53-205.3,94.6
		c-63.3,41.7-114.1,102.2-144.3,171.8c193.5-41.5,333.9-205.6,503.1-307.9v-67.2C1661.7,852.3,1604.4,886.1,1546.6,911.8z"/>
	<path clip-path="url(#SVGID_2_)" fill="#C4E3FA" d="M324.8,1400h87.7c35.5-70.6,74.9-138.8,124.4-200.2
		C457.2,1256.1,385.6,1323.8,324.8,1400z"/>
	<path clip-path="url(#SVGID_2_)" fill="#FFFFFF" d="M1196.9,1178.1c30.2-69.6,81-130,144.3-171.8c63-41.5,136.3-64,205.3-94.6
		c57.8-25.6,115.1-59.4,153.4-108.7V422.2c-25.9,10.8-48.6,26.2-56.9,52.1c-9.8,30.4,4.9,63.4,1.3,95.1
		c-5.4,47.7-49.2,80.3-89.1,106.9c-73.1,48.7-146.2,97.5-219.3,146.2c59.6-75.4,119.2-150.9,178.9-226.3
		c15.5-19.6,31.3-39.8,38-63.8c6.6-23.5,3.8-48.7,9.8-72.4c9.1-36.2,38-64.9,70.9-82.5c20.9-11.2,43.5-18.6,66.5-24.5V166.2
		l-131.9,85.7c-42.4,27.6-72.8,70.2-85.1,119.3v0c-16.2,64.8-63.7,117.3-126.6,139.8l-23,8.3c-25,9-52.1,10.2-77.8,3.7l0,0
		c-63.5-16.2-129.3,16.3-155.1,76.5l-32.6,76c-19.1,44.4-60.7,75-108.7,79.9l-95.3,9.7c-56.4,5.8-112,17.7-165.8,35.5v0
		c-91.3,30.2-176.2,77-250.4,138.1L434,949.8c-59.7,49.1-126.3,89-197.7,118.5l-30.3,12.5L0,1150.1v222
		c66.1-75.6,149-136.4,241.2-176.2c30.1-12.9,61.3-23.8,88.6-41.9c27.3-18.1,50.7-45,55.8-77.3c3.6,32.9-10.8,68.8-32.1,94.1
		c-21.3,25.3-48.6,44.6-74.8,64.8c-37.3,28.8-72.9,59.8-106.5,92.9c-22.6,22.2-44.4,45.5-62.5,71.4h215
		c60.9-76.2,132.4-143.9,212-200.2c-49.4,61.4-88.9,129.6-124.4,200.2h353.9c2.4-11.1,6.8-21.4,13.1-29.7
		c15-19.5,38.1-30.9,55.6-48.2s28.5-46.7,13.2-65.9c-12.3-15.4-36.5-17.6-47.9-33.7c-9.9-14-6.5-33-2.7-49.7
		c7-30.8,15.6-65,22.5-95.7c1.3,23.7,20.4,42.8,40.9,54.7c20.5,12,43.7,19.4,62.7,33.6c21,15.6,36,39.1,41.4,64.7
		c2.6,12.3,2.9,25.2,0.5,37.5c-6.6,33.2-32.4,59.1-59.7,79.2c-23.8,17.6-49.9,32.6-71,53.1h335.7c60-27.2,125-45.6,189.6-58.5
		c112.6-22.5,228-31.4,339.8-56.1V870.2C1530.8,972.5,1390.4,1136.6,1196.9,1178.1z M1099,785.7
		c-95.1,100.6-238.4,178.8-377.4,253.4c-74.4,39.9-149.5,80.2-231.4,111c-12.2,4.6-23.3-4.8-14.9-12.5
		c22.5-20.5,48.9-39.2,78.1-55.2c28.6-15.7,61.5-30.3,84.7-49c9.4-7.7-1.8-17.7-14.4-12.9c-18.7,7.1-37.4,14.3-56.1,21.4
		c-13.6,5.2-24.7-6.6-13-13.9c81.6-50.7,165.2-103.2,249-148.4c52.2-28.1,105.3-55.4,159.3-81.7c12-5.8,25.1,3.3,16.6,11.5
		c-0.3,0.3-0.6,0.6-0.9,0.9c-8.7,8.6,5.5,17.7,17.3,11.2l85.5-46.9C1093,768.5,1107.1,777.2,1099,785.7z"/>
	<path clip-path="url(#SVGID_2_)" fill="#C4E3FA" d="M1170.6,1400H1700v-114.7c-111.9,24.7-227.3,33.6-339.8,56.1
		C1295.6,1354.4,1230.6,1372.8,1170.6,1400z"/>
	<path clip-path="url(#SVGID_2_)" fill="#C4E3FA" d="M1081.4,774.9L996,821.8c-11.9,6.5-26-2.6-17.3-11.2c0.3-0.3,0.6-0.6,0.9-0.9
		c8.4-8.3-4.7-17.4-16.6-11.5c-54,26.3-107.1,53.6-159.3,81.7c-83.8,45.2-167.4,97.7-249,148.4c-11.7,7.3-0.6,19.1,13,13.9
		c18.7-7.1,37.4-14.3,56.1-21.4c12.6-4.8,23.9,5.2,14.4,12.9c-23.1,18.7-56.1,33.3-84.7,49c-29.2,16-55.6,34.6-78.1,55.2
		c-8.5,7.7,2.7,17.1,14.9,12.5c81.8-30.8,157-71.1,231.4-111c138.9-74.6,282.3-152.7,377.4-253.4
		C1107.1,777.2,1093,768.5,1081.4,774.9z"/>
	<path clip-path="url(#SVGID_2_)" fill="#C4E3FA" d="M965.6,1267.7c2.5-12.4,2.1-25.2-0.5-37.5c-5.3-25.6-20.3-49.1-41.4-64.7
		c-19.1-14.1-42.2-21.6-62.7-33.6c-20.5-12-39.6-31-40.9-54.7c-7,30.8-15.6,65-22.5,95.7c-3.8,16.7-7.1,35.7,2.7,49.7
		c11.4,16.1,35.6,18.3,47.9,33.7c15.3,19.2,4.3,48.6-13.2,65.9s-40.6,28.7-55.6,48.2c-6.4,8.3-10.7,18.6-13.1,29.7h68.6
		c21.1-20.5,47.2-35.6,71-53.1C933.1,1326.8,959,1300.9,965.6,1267.7z"/>
	<g clip-path="url(#SVGID_2_)">
		<path fill="#C61C00" d="M928.4,785.6l-378.1,222c-12.8,7.5-27.8,11.6-43.6,12h0c-7.4,0.2-10.8,7.8-6.2,13.8l0,0
			c6.1,7.9,16.1,12.3,25.7,11.5l4.3-0.4c13.6-1.3,26.4-5.4,37.6-12l382.4-230.1c6.7-4,5.8-13.4-1.7-17.1h0
			C942.3,782,934.4,782.1,928.4,785.6z"/>
		<path fill="#FDB128" d="M506.9,847c1.1-1.5,4.9-0.8,9.3,1.5l-0.9,1.3c-0.9,1.3-0.4,3.1,1,4.1v0c1.4,1,3.3,0.7,4.2-0.6l0.9-1.3
			c3.8,3.2,5.9,6.5,4.9,8c-1.3,1.9-6.7,0.4-12-3.2C509,853.3,505.7,848.9,506.9,847z"/>
		<path fill="#9F6F19" d="M516.3,853.9L516.3,853.9c-1.4-1-1.9-2.8-1-4.1l0.9-1.3l143.5-208.4c1.4,1.7,3.2,3.1,5.2,3.9L521.4,852
			l-0.9,1.3C519.6,854.6,517.8,854.9,516.3,853.9z"/>
		<path fill="#FDB128" d="M1385.6,655.5c-0.3-1.4-1.8-2.3-3.4-2.1l-10.7,1.5c-0.2-7.8,4.2-14.3,10.9-15.2c7.7-1.1,15.5,5.6,17.4,15
			c1.9,9.4-2.8,17.9-10.6,18.9c-7.3,1-14.6-4.9-17-13.5l11-1.6C1384.8,658.2,1385.9,656.9,1385.6,655.5z"/>
		<path fill="#9F6F19" d="M1145.4,685.6l226.1-30.8l10.7-1.5c1.6-0.2,3.1,0.7,3.4,2.1c0.3,1.4-0.8,2.7-2.4,2.9l-11,1.6l-225.6,33
			C1146.7,690.6,1146.2,688.1,1145.4,685.6z"/>
		<path fill="#9F6F19" d="M740.2,860.2c1.3,5.2,5.3,10.2,10.4,13.2c1.2,0.7,2.4,1.3,3.6,1.8c-0.1,5.3-0.2,10.6-0.3,15.8
			c-0.1,3.2-0.1,6.5-1.4,9.5c-2,4.5-6.7,7.4-11.1,10c-10.6,6.3-21.1,12.5-31.6,18.8c-6.2,3.7-12.5,7.4-19.7,9.5
			c-7.1,2.1-15.3,2.4-22.6-0.6c-7.3-3-13.3-9.9-13.4-17c-0.1-5.5,3.2-10.3,7.3-13.8c4.1-3.5,9.1-6.1,13.7-9.2
			c13.8-9.3,23.4-23.5,26.9-39.5c3.8,1.6,8.4,2.1,11.8,2.3C722.7,861.4,731.5,861.2,740.2,860.2z"/>
		<path fill="#001C2B" d="M865.3,510.7c3.3,8.2,8.6,15.7,15.1,22.3c-1,0-2-0.2-3-0.6c-3.9-1.3-6.9-4.4-8.9-7.8
			c-2-3.4-3-7.2-4.1-10.9c-0.5-1.6-0.9-3.3-1.4-4.9c0.6,0.3,1.2,0.6,1.8,0.8C865.1,510,865.2,510.4,865.3,510.7z"/>
		<path fill="#001C2B" d="M922.4,519.1c-2.2-1.7-3.3-4.3-3.9-6.9c-0.7-2.6-1-5.2-2-7.7c-0.9-2.2-2.4-4.2-4.2-5.9
			c1.2-1.2,2.4-2.4,3.5-3.7c4.2,2.7,5.5,8.2,6.1,12.4c0.4,2.4,1.1,4.7,2.3,6.9c2.7,5,6,6.2,9.1,5.2c0,0,0,0.1,0,0.1
			C928.5,520.5,924.5,520.8,922.4,519.1z"/>
		<path fill="#003E5C" d="M947,500.7c-0.7,4-4.2,11-8.5,15.3c-1.6,1.6-3.4,2.8-5.2,3.4c-3.2,1-6.4-0.2-9.1-5.2
			c-1.2-2.2-1.9-4.5-2.3-6.9c-0.6-4.2-1.9-9.7-6.1-12.4c-1.1,1.3-2.3,2.5-3.5,3.7c-4.7,4.5-10.2,8.2-16.4,10.5
			c-5.8-11.5-10.8-23.5-12.2-36c-1.4-12.3,1-25.3,8.4-35.2c15-1.1,30.3,6.5,39.9,17.8c1.6,1.9,3.1,4,4.6,6.1
			C944.2,473.5,949.1,487.8,947,500.7z"/>
		<path fill="#003E5C" d="M874.8,511.6c-3-0.3-6.1-0.8-9-1.6c-0.3-0.1-0.6-0.2-0.8-0.3c-0.6-0.2-1.2-0.5-1.8-0.8
			c-2.5-1.4-4.3-3.7-5.1-6.3c-0.8-2.8-1.6-5.6-2.2-8.4c-2.1-9.3-2.7-18.5,0.4-27.5c2.1-6,5.6-11.7,10.1-16.4
			c-3.4,8.2-4.4,17.5-3.4,26.4C864.5,488.8,869.2,500.4,874.8,511.6z"/>
		<path fill="#FFFFFF" d="M883.5,473.1c1.5,12.5,6.5,24.5,12.2,36c-1.8,0.7-3.6,1.2-5.4,1.6c-5,1.1-10.3,1.4-15.5,0.9
			c-5.6-11.2-10.3-22.8-11.8-34.9c-1.1-8.9-0.1-18.2,3.4-26.4c5.7-5.9,13-10.2,21.4-11.8c1.4-0.3,2.7-0.4,4.1-0.5
			C884.5,447.8,882.1,460.9,883.5,473.1z"/>
		<path fill="#001C2B" d="M702.5,598.2c2.4,4.2,3.2,9.1,2.5,13.7c-0.8-1.7-2.3-3-4-4.1c1.3,0.1,2.4-0.2,2.8-0.9
			c1.4-2-2-6.6-7.7-10.3c-5.6-3.7-11.3-5-12.7-3c-0.8,1.1,0,3.1,1.7,5.2l-4.5-2.5c-3.5-2-7.9-1.8-10.9,0.6c-0.9,0.8-1.8,1.6-2.5,2.6
			c-4,5.5-8.1,11-12.1,16.5c-0.8,1.1-1.7,2.3-2.4,3.5c-0.3-3.4,0.5-7,1.6-10.2c2.7-8,7.3-15.9,14.6-20.2c1.5-0.9,3-1.6,4.7-2.2
			C684.1,583.6,697.1,588.7,702.5,598.2z"/>
		<path fill="#FDB128" d="M1085.3,682.1c7.2-1,14.6,5.5,16.6,14.5c2,9-2.3,17.2-9.4,18.2c-0.9,0.1-1.8,0.1-2.8,0
			c-6.2-0.7-12-6.7-13.8-14.5c-0.5-2.2-0.6-4.3-0.4-6.3C1076.2,687.8,1079.9,682.9,1085.3,682.1z"/>
		<path fill="#9F6F19" d="M697.6,607.1l-2.6,3.7c-0.8,1.2-4.2,0.4-7.5-1.8c-3.3-2.2-5.3-4.9-4.5-6.1l2.6-3.7
			c1.4,1.5,3.3,3.2,5.5,4.6C693.3,605.3,695.6,606.4,697.6,607.1z"/>
		<path fill="#FDB128" d="M683.4,593.6c1.4-2,7.1-0.7,12.7,3c5.6,3.7,9.1,8.3,7.7,10.3c-0.5,0.7-1.5,1-2.8,0.9c-1,0-2.1-0.3-3.4-0.7
			c-2-0.7-4.3-1.7-6.5-3.2c-2.3-1.5-4.1-3.1-5.5-4.6c-0.1-0.2-0.3-0.3-0.4-0.5C683.4,596.7,682.6,594.7,683.4,593.6z"/>
		<g>
			<path fill="#912527" d="M954.7,669.6c0-8.3-8.1-16.5-5.3-24.4c2.8-7.9,14.3-9.4,20.8-15.2c5.9-5.3,7.1-13.5,9.1-20.9
				c2-7.4,6.4-15.5,14.6-17c9-1.6,18.3,5.4,27.2,3.3c9.2-2.1,13.1-12.9,22.2-15.4c11.5-3.2,24.3,8.4,35.6,4.6
				c6.2-2.1,9.5-8.2,14.2-12.5c6.2-5.6,15.1-7.9,23.9-6.3c-3.5,2.5-7.1,5.1-9.6,8.5c-2.5,3.4-3.7,7.8-2,11.6c1.4,3.2,4.6,6,4.3,9.4
				c-0.3,3.5-4.4,5.8-5.6,9.1c-1.2,3.3,0.7,7,3.1,9.8c2.4,2.8,5.5,5.2,7.3,8.4c1.4,2.4,1.9,5,1.8,7.6c-0.9,0-1.7-0.1-2.6,0
				c-8.5,0.3-17.1,4.9-19.4,12.3c-0.2,0.7-0.4,1.4-0.5,2.1c-2.1-2.1-3.4-4.6-3.5-7.3c-0.1-3.5,1.9-6.7,1.8-10.2
				c-0.1-3.4-2.1-6.5-4-9.4c-2-2.9-4.1-6-4.5-9.3c-0.4-3.4,1.6-7.2,5.3-7.8c-29,1.3-57.4,3.6-85.1,9.7c-8.2,15.5-16.8,30.9-25,46.3
				c-2.7,5.1-5.5,10.7-4.1,16.3c0.9,3.7,3.6,7.6,1.9,11c-1.1,2.1-3.5,3.2-5.1,5c-4,4.6-1,11.5,0.2,17.4c3,14-5.4,28.1-18.2,35.3
				c-7.5,4.3-16.3,6.5-25.3,7.1c10.5-4.1,19.3-11.3,24.8-20.9c0.5-0.9,1-1.8,1.4-2.7c4.7-9.9,5-22.2-1.6-31.7
				c-2.2-3.1-5-5.7-8.1-7.9C950,681.2,954.7,676,954.7,669.6z"/>
			<path fill="#912527" d="M952.9,503.6c-1.5,3.7-3.5,7.5-2.8,11.4c0.7,3.6,3.4,6.6,5.1,10c2.2,4.7,2.2,10,1,14.8
				c-5.1,20.2-24.5,36.2-47,37.4c15.9-3.1,29.6-13.8,35.6-27.7c-4.7,7.2-11.3,13.1-20.1,15c-7.8,1.7-16.6,1.6-23.1-3.5
				c-3.5-2.7-6.8-5.9-11.1-7c-3.1-0.8-6.4-0.4-9.5-1.3c-8.5-2.7-8.7-15-7-22.1c1.1,0.7,2.2,1.4,3.4,1.8c1,0.3,2,0.5,3,0.6
				c4.1,4.2,8.8,7.9,13.7,11.4c4.6,3.2,9.8,6.2,15.6,6.6c8.5,0.5,16-4.8,20.7-11.1c5.2-7,7.7-15.4,8-23.9c4.4-4.3,7.9-11.3,8.5-15.3
				c1.2-7,0.2-14.5-2.1-21.8c1.8,1.5,3.4,3.3,4.8,5.2C953.9,490.3,955.8,496.7,952.9,503.6z"/>
			<path fill="#F13B17" d="M669,588.3c-0.1-3.5,1.3-7.2,4.3-9.1c3.6-2.2,8.6-1.5,12.4-3.4c5.7-2.8,6.7-10,9.5-15.4
				c4.7-9.1,16.3-14.2,27.1-11.9c6.2-1.6,9-7.3,13.6-11.4c3-2.7,6.7-4.6,10.4-6.5c7.7-4,15.4-8,23.1-12c9.7-5.1,19.5-10.2,29.9-14.2
				c17.7-6.8,37-10.3,56.5-10.2c0.6,2.8,1.4,5.6,2.2,8.4c0.8,2.6,2.6,4.9,5.1,6.3c0.5,1.6,0.9,3.3,1.4,4.9c1,3.7,2.1,7.5,4.1,10.9
				c1.3,2.3,3.2,4.4,5.4,6c-1.8,7.1-1.6,19.4,7,22.1c3,1,6.4,0.6,9.5,1.3c4.3,1.1,7.7,4.3,11.1,7c6.5,5,15.2,5.2,23.1,3.5
				c8.9-1.9,15.4-7.8,20.1-15c-6,14-19.7,24.6-35.6,27.7c22.5-1.2,41.9-17.3,47-37.4c1.2-4.9,1.3-10.2-1-14.8
				c-1.6-3.4-4.4-6.4-5.1-10c-0.7-3.9,1.2-7.7,2.8-11.4c2.9-6.9,1-13.3-3.3-19.5c-1.4-1.9-3-3.7-4.8-5.2c-2-6-4.9-11.8-8.5-17.1
				c10.2,0.4,20,7,25,15.5c5.7,9.8,6,21.6,3.5,32.2c12.1-2.4,26.7,0.6,38.7,4.3c11.7,3.6,22.3,9.8,33.7,14.2
				c28.5,11.2,60.5,10.7,91.3,15.7c4.9,0.8,9.9,1.7,14.2,4c4.4,2.2,8.1,5.9,9,10.3c1.8,8.6-7.2,16.6-5.4,25.1
				c1.5,6.8,9.6,12.9,6.9,19.3c-1.9,4.4-8.2,6.1-10.2,10.5c-2.7,6,4.2,12.1,5.2,18.6c0.9,6-3.8,11.6-9.6,14.4
				c-0.5,0.2-0.9,0.4-1.4,0.6c0-1,0-2.1,0.1-3.1c0.2-4-2.3-7.7-6.3-9.5c-4.7-2.1-9.7-3.5-14.8-3.8c0.1-2.6-0.4-5.1-1.8-7.6
				c-1.8-3.2-4.8-5.6-7.3-8.4c-2.4-2.8-4.3-6.5-3.1-9.8c1.2-3.3,5.2-5.6,5.6-9.1c0.3-3.4-2.9-6.2-4.3-9.4c-1.6-3.9-0.4-8.3,2-11.6
				c2.5-3.4,6-6,9.6-8.5c-8.8-1.6-17.7,0.6-23.9,6.3c-4.7,4.3-7.9,10.4-14.2,12.5c-11.3,3.9-24.1-7.8-35.6-4.6
				c-9.1,2.5-13,13.3-22.2,15.4c-8.9,2.1-18.2-5-27.2-3.3c-8.2,1.5-12.6,9.6-14.6,17c-2,7.4-3.2,15.6-9.1,20.9
				c-6.5,5.8-18,7.3-20.8,15.2c-2.8,7.8,5.3,16,5.3,24.4c0,6.4-4.6,11.6-10,15.8c-7.3-5.1-16.6-8.1-25.6-10.1
				c-13.3-3-26.9-4.7-40.4-5c-49.8-10.2-78.6-29.2-95.2,3.4c-1.9,3.7-4.2,8.1-6.7,12.8c-3.2-10.3-0.6-21.9,7.2-29.3
				c4.3-4.1,10.2-7.2,12.5-12.6c2.7-6.2,0.4-14.7,5.9-18.9c3.2-2.4,7.9-2.4,11.4-4.5c5.4-3.3,5.9-10.5,5.8-16.7
				c-0.1-9.7-0.2-19.5-0.2-29.2c3.5-1.5,7.6-2.3,11.3-3.2c6.9-1.7,14.6-5.8,14.4-12.6c-1,3.2-4.5,5.2-8.1,5.7
				c-3.6,0.5-7.2-0.2-10.8-0.9c-8.7-1.7-17.5-3.4-26.2-5.2c-5.6-1.1-11.7-2.2-16.8,0c-5.1,2.2-8.1,7.4-12.7,10.3
				c-4,2.6-9.3,3.1-14.1,1.9c-5-1.2-10,1.5-11.3,6c-0.1,0.3-0.2,0.6-0.3,1c-1.5,4.3-5.2,8.2-10,8.7c-4.1,0.4-8.5-1.5-12.2,0
				c-2.6,1.1-4.2,3.5-6.5,5c-2.8,1.7-6.4,1.8-9.7,2.4c-1.9,0.3-3.6,0.8-5.3,1.5c-6.1-8-17.7-12-27.2-9c-1.7,0.5-3.3,1.3-4.7,2.2
				C669,588.8,669,588.6,669,588.3z"/>
			<path fill="#912527" d="M716,592c2.4-1.4,3.9-3.9,6.5-5c3.7-1.5,8.2,0.4,12.2,0c4.8-0.5,8.5-4.4,10-8.7c0.1-0.3,0.2-0.6,0.3-1
				c1.3-4.6,6.3-7.3,11.3-6c4.8,1.2,10.1,0.6,14.1-1.9c4.6-3,7.6-8.1,12.7-10.3c5.1-2.2,11.2-1.1,16.8,0c8.7,1.7,17.4,3.4,26.2,5.2
				c3.6,0.7,7.2,1.4,10.8,0.9c3.6-0.5,7-2.5,8.1-5.7c0.3,6.8-7.5,10.9-14.4,12.6c-3.7,0.9-7.8,1.8-11.3,3.2c0-0.2,0-0.4,0-0.5
				c-15.5-3.5-32.9,1.4-42.4,12.7c-1.9,2.2-3.7,4.8-6.7,5.6c-4,1.1-8.6-1.6-12.6-0.4c-6.2,2-5.3,11.2-10.4,15
				c-6.7,4.9-16.9-3.1-25.3-1.4c-8.3,1.7-10.9,11.9-18.3,15.7c-0.5,0.3-1.1,0.5-1.6,0.7c0.1-0.2,0.3-0.4,0.4-0.6
				c1.9-2.8,3.9-6.1,2.7-9.4c-0.1-0.2-0.2-0.3-0.2-0.5c0.7-4.6-0.1-9.4-2.5-13.7c-0.5-0.8-1-1.6-1.5-2.3c1.7-0.7,3.5-1.2,5.3-1.5
				C709.6,593.8,713.2,593.8,716,592z"/>
		</g>
		<g>
			<path fill="#F5A167" d="M902.9,512.7c1.4-1.2,2.7-2.5,4.4-3.3c1.7-0.8,4-0.9,5.4,0.3c2.3,1.9,1.1,5.3,1.5,8
				c0.6,4.2,4.8,7.1,8.9,8.8c4,1.7,8.5,2.7,11.9,5.2c-1.2,2.8-2.7,5.5-4.5,8c-4.6,6.3-12.2,11.6-20.7,11.1c-5.8-0.4-11-3.4-15.6-6.6
				c-4.9-3.4-9.5-7.2-13.7-11.4c-5.1-5.1-9.5-10.8-12.7-17c3.6,2,7.7,3.2,11.8,3.7C888,520.6,896.8,518,902.9,512.7z"/>
			<path fill="#FF7F30" d="M864.9,509.7c0.3,0.1,0.5,0.2,0.8,0.3c3,0.8,6,1.4,9,1.6c5.2,0.5,10.4,0.2,15.5-0.9
				c1.9-0.4,3.7-0.9,5.4-1.6c6.2-2.3,11.8-6,16.4-10.5c1.9,1.6,3.3,3.7,4.2,5.9c1,2.5,1.3,5.1,2,7.7c0.7,2.6,1.8,5.2,3.9,6.9
				c2.2,1.7,6.1,1.5,10.9,0.4c0,0,0-0.1,0-0.1c1.8-0.5,3.5-1.8,5.2-3.4c-0.2,5.4-1.3,10.8-3.5,15.8c-3.5-2.5-7.9-3.6-11.9-5.2
				c-4.2-1.7-8.4-4.7-8.9-8.8c-0.4-2.8,0.8-6.1-1.5-8c-1.4-1.2-3.7-1.1-5.4-0.3c-1.7,0.8-3,2.1-4.4,3.3c-6.2,5.3-14.9,7.9-23.3,7
				c-4.1-0.4-8.2-1.7-11.8-3.7c-0.9-1.7-1.7-3.5-2.4-5.3C865.2,510.4,865.1,510,864.9,509.7z"/>
		</g>
		<g>
			<path fill="#001C2B" d="M839.6,782.5c1-5.1,5.7-10.2,2.7-14.9c-2-3-6.4-4.2-8.2-7.2c-1.8-3-0.4-6.6,1.8-9.1
				c2.1-2.5,5-4.6,6.5-7.5c2.8-5.3,0.3-12-2.9-17.5c-3.3-5.5-7.4-10.8-8.4-16.9c-0.9-6.1,3.1-13.2,9.7-12.9
				c4.4,0.2,6.2,6.8,6.8,10.9c0.6,4.1,3.1,9.4,7.5,8.9c2.4-0.3,4.1-2.4,6.5-2.7c3-0.5,5.8,1.9,7.4,4.4c1.6,2.5,2.7,5.3,5,7.3
				c10.3,8.6,25.3-1.4,33.8-5.8c2.7-1.4,5.6-2.8,8.8-3.1c3.4-0.3,6.8,0.7,10.2,1.6c13.1,3.3,23.4-5.5,29.9-17
				c2.5,7.9,1.4,16.7-2.1,24.1c-0.4,0.9-0.9,1.9-1.4,2.7c-5.4,9.6-14.2,16.7-24.8,20.9c-6.1,2.4-12.8,3.8-19.8,4
				c-12.4,0.4-24.8,0.8-37.1,1.1c4.9,5.5,9.5,16.5,4.2,22.2c-2.6,2.8-7.1,4.9-6.8,8.7c0.2,2.4,2.4,4.2,3.8,6.3
				c3.1,4.4,2.8,10.5-0.8,14.2c-3.7,3.7-10.9,3.9-17.4,3.7c-2.4-0.1-4.7-0.2-6.7-0.2c-1.4,0-2.9,0-4.3-0.1c0.5-1.4,0.8-2.8,0.8-4.3
				C844.2,796.7,838.2,789.6,839.6,782.5z"/>
			<path fill="#003E5C" d="M804.2,771.7c4.2-4.5,8.2-10.3,6.2-16.3c-2.1-6.2-10.1-10.6-9.9-16.9c0.2-6,7.6-9.2,9.1-14.9
				c1.9-6.8-5-13.4-7-20.4c-2.1-7.5,1.8-15.3,7.9-20.1c6.2-4.8,14.2-7.1,22.2-8.8c14.9-3.1,30.4-4.5,46-4.1c13.5,0.4,27.1,2,40.4,5
				c12.8,2.9,26.4,7.7,33.7,18c1.7,2.4,2.9,4.9,3.7,7.5c-6.5,11.5-16.8,20.3-29.9,17c-3.3-0.9-6.8-1.9-10.2-1.6
				c-3.2,0.3-6,1.7-8.8,3.1c-8.5,4.3-23.5,14.3-33.8,5.8c-2.3-2-3.4-4.8-5-7.3c-1.6-2.5-4.5-4.9-7.4-4.4c-2.4,0.4-4.1,2.5-6.5,2.7
				c-4.4,0.5-6.9-4.8-7.5-8.9c-0.6-4.1-2.3-10.7-6.8-10.9c-6.6-0.2-10.7,6.8-9.7,12.9c0.9,6.1,5.1,11.4,8.4,16.9
				c3.3,5.5,5.7,12.1,2.9,17.5c-1.5,2.9-4.4,5-6.5,7.5c-2.1,2.5-3.5,6.1-1.8,9.1c1.8,3.1,6.3,4.2,8.2,7.2c3,4.7-1.7,9.8-2.7,14.9
				c-1.4,7.1,4.6,14.2,4.6,21.5c0,1.5-0.3,3-0.8,4.3c-9-0.4-18-1.7-26.8-4c-5.3-1.4-10.7-3.2-14.9-6.7c-0.6-0.5-1.3-1.1-1.8-1.7
				c-1.4-1.4-2.5-3.1-3.3-4.8C793.4,783.2,799.2,777.2,804.2,771.7z"/>
		</g>
		<g>
			<path fill="#003E5C" d="M703.6,836.1c1.2-2.9,1.5-6.4,0-9.4c-1.2-2.5-3.5-4.5-4.5-7c-1.2-2.9-0.5-6,1-8.5
				c2.9-4.9,8.2-6.9,4.7-13.7c-3.3-6.3-1.5-13.8,2.4-19.3c3.9-5.5,9.6-9.6,14.9-13.9c17.8-14.7,40.6-51.9,54.6-77.8
				c2.6-4.7,4.8-9,6.7-12.8c16.6-32.7,45.4-13.6,95.2-3.4c-15.6-0.4-31.1,0.9-46,4.1c-8,1.7-16,4-22.2,8.8
				c-5.9,4.6-9.7,11.9-8.1,19.2c-0.2,1.3-0.3,2.6-0.6,3.9c-0.8,4.5-2.4,9.1-6.4,11.6c-3.3,2.1-8.3,3.1-8.7,6.8
				c-0.4,3.8,4.5,6.7,5.1,10.5c0.8,5.2-6.6,7.8-8.2,12.7c-1.5,4.5,2.2,9.3,2.6,14c0.4,4.9-2.7,9.4-7.1,11.9
				c-4.3,2.5-9.6,3.2-14.9,3.4c-3.6,0.1-7.3-0.1-10.7,1c-3.3,1.1-6.3,3.8-6.1,7.2c0.2,4.4,5.2,7.4,7.3,11.4c1.6,3,1.2,6.5-0.4,9.1
				c-1.9,3.1-5.5,3.5-7.9,6c-5,5.2,3.2,7.8,5.6,11.9c2.5,4.2-1.4,6.8-4.6,8.8c-4.4,2.7-10.2,4.8-11,10.2c-0.6,3.9,1.3,8,3.5,11.7
				c0,0.1,0,0.1,0,0.2c-0.3,1.9-0.2,3.8,0.3,5.6c-8.7,1-17.5,1.2-26.3,0.8c-3.4-0.2-8-0.7-11.8-2.3c-2.9-1.2-5.3-3-6.4-5.7
				C693,846.5,701.5,841.3,703.6,836.1z"/>
			<path fill="#001C2B" d="M736.4,842.7c0.9-5.5,6.6-7.6,11-10.2c3.2-2,7.1-4.6,4.6-8.8c-2.4-4.1-10.6-6.6-5.6-11.9
				c2.4-2.5,6-2.9,7.9-6c1.7-2.7,2-6.2,0.4-9.1c-2.2-4-7.1-7-7.3-11.4c-0.2-3.4,2.7-6.1,6.1-7.2c3.3-1.1,7.1-0.9,10.7-1
				c5.2-0.1,10.5-0.9,14.9-3.4c4.3-2.5,7.5-7,7.1-11.9c-0.4-4.8-4.1-9.6-2.6-14c1.6-4.9,9-7.5,8.2-12.7c-0.6-3.8-5.5-6.7-5.1-10.5
				c0.4-3.7,5.4-4.7,8.7-6.8c3.9-2.5,5.6-7.1,6.4-11.6c0.2-1.3,0.4-2.6,0.6-3.9c0.1,0.3,0.1,0.6,0.2,0.9c2,7,8.9,13.6,7,20.4
				c-1.6,5.7-9,9-9.1,14.9c-0.2,6.3,7.8,10.7,9.9,16.9c2,6-2.1,11.8-6.2,16.3c-5,5.4-10.7,11.4-7.5,19.3c0.7,1.8,1.9,3.4,3.3,4.8
				c0.6,0.6,1.2,1.2,1.8,1.7c-6.4,16.2-19.3,29.7-35.9,37.2c-5.3,2.4-10.9,4.2-15.8,7.1c-4.8,2.9-9,7.1-10,12.4
				C737.7,850.7,735.8,846.6,736.4,842.7z"/>
		</g>
		<g>
			<path fill="#001C2B" d="M1111.6,662c-4.6,5.8-13.5,6.9-20.8,9.7c-7.3,2.8-13.4,7.6-17.6,13.6c0.2-3.8,2-7.5,4.9-10.2
				c4.1-3.7,10.3-5.5,13.4-10c4-5.8,1.2-13.6,2.3-20.5c0.1-0.7,0.3-1.4,0.5-2.1c2.3-7.3,10.9-12,19.4-12.3c1,0,1.9,0,2.9,0.1
				c-0.4,5.9-0.8,11.9-1.2,17.8C1115.1,652.9,1114.7,658.1,1111.6,662z"/>
			<path fill="#003E5C" d="M1090.8,671.6c7.3-2.8,16.1-3.9,20.8-9.7c3.1-3.9,3.6-9,3.9-13.9c0.4-5.9,0.8-11.9,1.2-17.8
				c5,0.3,9.8,1.7,14.4,3.8c4,1.8,6.5,5.5,6.3,9.5c0,1-0.1,2.1-0.1,3.1c0,11,2.2,22.1,5.8,32.6c0.7,2.1,1.6,4.3,2.2,6.4
				c0.8,2.5,1.3,5,1.3,7.5c0,0.7-0.1,1.5-0.2,2.2c-0.8,4.8-4.2,8.9-8.4,11.8c-4.2,3-9.1,4.9-13.9,6.9c-5.3,2.1-10.6,4.2-16.3,4.9
				c-5.7,0.8-12,0-16.8-3.1c-0.5-0.3-0.9-0.7-1.4-1c0.9,0.1,1.8,0.1,2.8,0c7.2-1,11.4-9.1,9.4-18.2c-2-9-9.4-15.6-16.6-14.5
				c-5.4,0.8-9.2,5.7-9.8,11.9c-1-1.6-1.8-3.4-2.1-5.2c-0.2-1.2-0.3-2.4-0.2-3.6C1077.4,679.2,1083.5,674.4,1090.8,671.6z"/>
		</g>
		<g>
			<path fill="#003E5C" d="M681,635.2l-0.1,1.8C680.8,636.4,680.8,635.8,681,635.2z"/>
			<path fill="#001C2B" d="M693.1,625.4c-1.6,2.6-3.9,4.7-5.5,7.3c-1.6,2.5-2.5,5.4-2.8,8.4c-2-0.4-3.6-2.2-4-4.1l0.1-1.8l13-18.6
				C695.4,619.5,694.7,622.8,693.1,625.4z"/>
			<path fill="#001C2B" d="M660.1,635.4c1.4,0.9,3.3,1.8,4.5,0.8c1-0.8,0.7-2.5,1.5-3.4c1.2-1.5,3.9-0.8,5.5-1.9
				c1.5-1,1.4-3.3,0.4-4.8c-1-1.6-2.6-2.7-4-4c-0.7-0.6-1.4-1.4-1.1-2.2c0.4-1,2-0.9,3-0.2c1,0.7,1.7,1.7,2.8,2.2
				c1.9,0.8,3.9-0.4,4.9-2c1-1.6,1.3-3.5,2.2-5.2c0.9-1.7,2.7-3.1,4.7-2.6c1.9,0.4,3,2.5,2.9,4.3c-0.1,1.8-1,3.4-1.9,4.9
				c-1.7,2.9-3.4,5.7-5.1,8.6c-3.3,5.5-6.7,11-11.4,15.3c-1.2-0.1-2.4-0.3-3.7-0.9c-0.1,0-0.1-0.1-0.2-0.1c-2-0.9-3.8-2.2-5.2-3.9
				c-0.2-0.3-0.4-0.5-0.6-0.8c-2.6-3.5-6.4-7.4-7.6-11.8C654,630.6,656.8,633.2,660.1,635.4z"/>
			<path fill="#003E5C" d="M680.3,629.7c1.7-2.9,3.4-5.7,5.1-8.6c0.9-1.5,1.8-3.1,1.9-4.9c0.1-1.8-1.1-3.8-2.9-4.3
				c-2-0.5-3.8,1-4.7,2.6c-0.9,1.7-1.2,3.6-2.2,5.2c-1,1.6-3.1,2.8-4.9,2c-1.1-0.5-1.8-1.5-2.8-2.2c-1-0.7-2.7-0.8-3,0.2
				c-0.3,0.8,0.4,1.6,1.1,2.2c1.4,1.3,3,2.4,4,4c1,1.6,1.1,3.8-0.4,4.8c-1.6,1.1-4.3,0.4-5.5,1.9c-0.8,1-0.5,2.6-1.5,3.4
				c-1.2,1-3.1,0.2-4.5-0.8c-3.2-2.2-6.1-4.9-8.5-7.9c-0.3-1-0.4-2-0.4-3.1c0.1-1.8,0.8-3.4,1.6-5c0.7-1.2,1.5-2.4,2.4-3.5
				c4-5.5,8.1-11,12.1-16.5c0.7-1,1.5-1.8,2.5-2.6c2.9-2.4,7.3-2.6,10.9-0.6l4.5,2.5c0.1,0.2,0.3,0.3,0.4,0.5L683,603
				c-0.8,1.2,1.2,3.9,4.5,6.1c3.3,2.2,6.7,2.9,7.5,1.8l2.6-3.7c1.3,0.4,2.4,0.6,3.4,0.7c1.7,1.1,3.2,2.4,4,4.1
				c0.1,0.2,0.2,0.3,0.2,0.5c1.2,3.3-0.8,6.6-2.7,9.4c-0.1,0.2-0.3,0.4-0.4,0.6c-3.3,4.7-6.6,9.4-9.8,14.2c-1.5,2.2-3.5,4.7-6.4,4.7
				c-0.3,0-0.6,0-0.9-0.1c0.2-3,1.2-5.9,2.8-8.4c1.6-2.6,3.9-4.7,5.5-7.3c1.6-2.6,2.2-5.9,0.9-8.8l-13,18.6
				c-2.5,4.8-6.1,10.1-12.1,9.8C673.6,640.8,677,635.2,680.3,629.7z"/>
		</g>
		<path fill="#912527" d="M676.9,896.1c5.8,0.4,13.1,3.4,17.2,7.6c2.8,2.9,4.7,6.4,7.8,8.9c3.1,2.5,8.2,3.7,10.8,1.1
			c2.5-2.5,1-6.9-1.2-10.1c-5.7-8.3-15.6-14.2-25.8-15.5C683.2,890.7,679.4,893.6,676.9,896.1z"/>
		<path fill="#912527" d="M659.7,906.4c5.8,0.4,13.1,3.4,17.1,7.6c2.7,2.9,4.7,6.4,7.8,8.9c3.1,2.5,8.2,3.7,10.7,1.1
			c2.5-2.5,1-6.9-1.2-10.1c-5.7-8.3-12.9-13.2-23.1-14.5C668.5,902,662.2,903.8,659.7,906.4z"/>
		<path fill="#EB1812" d="M973.8,783.9L549.6,941c-14.4,5.3-30.3,7-46.4,4.8h0c-7.5-1-12.4,6-8.8,12.5h0c4.7,8.6,14,14.6,23.8,15.2
			l4.4,0.3c14,0.9,27.7-1.1,40.2-5.8l429.8-164.2c7.5-2.9,8.5-12.2,1.7-17h0C988.4,782.5,980.5,781.4,973.8,783.9z"/>
		<path fill="#FDB128" d="M740.2,860.2c-0.5-1.9-0.6-3.8-0.3-5.6c0.9-5.4,5.2-9.7,10.1-12.6c4.9-2.9,10.5-4.7,15.8-7.1
			c16.6-7.5,29.5-21,35.9-37.2c4.3,3.5,9.6,5.3,14.9,6.7c10.2,2.7,20.7,4.1,31.1,4.1c2,0,4.3,0.1,6.7,0.2
			c-2.1,10.2-4.2,20.4-6.3,30.6c-0.7,3.2-1.4,6.5-3.2,9.2c-2.9,4.2-8.2,6.4-13.3,8.3c-12,4.7-24,9.3-36,14c-7.1,2.8-14.3,5.5-22,6.6
			c-6.4,0.9-13.3,0.4-19.5-2.1c-1.2-0.5-2.4-1.1-3.6-1.8C745.5,870.4,741.5,865.4,740.2,860.2z"/>
		<path fill="#F13B17" d="M776.4,827.8c6,0.5,13.4,3.8,17.3,8.3c2.7,3,4.5,6.7,7.6,9.3c3.1,2.7,8.3,4,11,1.5c2.7-2.5,1.4-7-0.7-10.4
			c-5.4-8.6-15.3-15-25.8-16.5C783.2,822.4,779.2,825.3,776.4,827.8z"/>
		<path fill="#F13B17" d="M758.1,837.7c6,0.5,13.3,3.8,17.3,8.3c2.7,3,4.5,6.6,7.6,9.3c3.1,2.7,8.2,4,11,1.5c2.7-2.5,1.4-7-0.7-10.3
			c-5.4-8.6-12.7-13.9-23.1-15.4C767.5,833.5,760.8,835.2,758.1,837.7z"/>
	</g>
	<g clip-path="url(#SVGID_2_)">
		<circle fill="#C4E3FA" cx="1061.6" cy="927.8" r="12.6"/>
		<circle fill="#C4E3FA" cx="1130" cy="851.2" r="5"/>
		<circle fill="#C4E3FA" cx="1238" cy="762.3" r="15"/>
		<circle fill="#C4E3FA" cx="1342.5" cy="857.7" r="6.5"/>
		<circle fill="#C4E3FA" cx="1427" cy="793.1" r="10"/>
		<circle fill="#C4E3FA" cx="938.1" cy="1066.9" r="9.9"/>
		<circle fill="#C4E3FA" cx="740.4" cy="1116.7" r="13.7"/>
		<circle fill="#C4E3FA" cx="733.2" cy="1244.9" r="6.5"/>
		<circle fill="#C4E3FA" cx="794.2" cy="1292.6" r="7.3"/>
		<circle fill="#C4E3FA" cx="526.4" cy="1311.5" r="11.5"/>
		<circle fill="#C4E3FA" cx="434.3" cy="1219.1" r="19.3"/>
		<circle fill="#C4E3FA" cx="368.9" cy="1247.1" r="27.9"/>
		<circle fill="#C4E3FA" cx="118.8" cy="1159.2" r="7.8"/>
		<circle fill="#C4E3FA" cx="214.8" cy="1332.8" r="9.8"/>
		<circle fill="#C4E3FA" cx="415.6" cy="1045.7" r="18.7"/>
		<circle fill="#C4E3FA" cx="1369.5" cy="1198.6" r="20.5"/>
		<circle fill="#C4E3FA" cx="1437.7" cy="1141.1" r="10.7"/>
		<circle fill="#C4E3FA" cx="1536.5" cy="1159.6" r="18.5"/>
		<circle fill="#C4E3FA" cx="1558" cy="1042" r="15"/>
		<circle fill="#C4E3FA" cx="1655.5" cy="994.5" r="20.5"/>
		<circle fill="#C4E3FA" cx="1645.2" cy="1208.9" r="10.2"/>
		<circle fill="#C4E3FA" cx="1104.6" cy="1228.7" r="9.6"/>
		<circle fill="#C4E3FA" cx="1160.2" cy="1028.5" r="13.5"/>
		<circle fill="#C4E3FA" cx="1532.5" cy="859.6" r="25.5"/>
		<circle fill="#C4E3FA" cx="1637.2" cy="770.8" r="18.2"/>
		<circle fill="#C4E3FA" cx="1533" cy="534.9" r="40"/>
		<circle fill="#C4E3FA" cx="1412.6" cy="545.4" r="12.4"/>
		<circle fill="#C4E3FA" cx="1530" cy="588.4" r="23"/>
		<circle fill="#C4E3FA" cx="1536.5" cy="399.5" r="6.5"/>
		<circle fill="#C4E3FA" cx="1599" cy="277" r="10"/>
	</g>
	<circle clip-path="url(#SVGID_2_)" fill="#CEF2FC" cx="141.5" cy="99.9" r="14.8"/>
	<circle clip-path="url(#SVGID_2_)" fill="#CEF2FC" cx="342" cy="72.1" r="13"/>
	<circle clip-path="url(#SVGID_2_)" fill="#CEF2FC" cx="485.4" cy="179.1" r="13"/>
	<circle clip-path="url(#SVGID_2_)" fill="#CEF2FC" cx="629.1" cy="69" r="9.9"/>
	<circle clip-path="url(#SVGID_2_)" fill="#CEF2FC" cx="691.8" cy="205.2" r="8.7"/>
	<circle clip-path="url(#SVGID_2_)" fill="#CEF2FC" cx="879.3" cy="92.5" r="7.5"/>
	<circle clip-path="url(#SVGID_2_)" fill="#CEF2FC" cx="1083.1" cy="69" r="9.9"/>
	<circle clip-path="url(#SVGID_2_)" fill="#CEF2FC" cx="1115.6" cy="121.3" r="6.6"/>
	<circle clip-path="url(#SVGID_2_)" fill="#CEF2FC" cx="1142" cy="73.9" r="5"/>
	<circle clip-path="url(#SVGID_2_)" fill="#CEF2FC" cx="1182" cy="43" r="3"/>
	<circle clip-path="url(#SVGID_2_)" fill="#CEF2FC" cx="1252.6" cy="157.6" r="8.6"/>
	<circle clip-path="url(#SVGID_2_)" fill="#CEF2FC" cx="1293.2" cy="73.9" r="5"/>
	<circle clip-path="url(#SVGID_2_)" fill="#CEF2FC" cx="1436.5" cy="153.3" r="4.3"/>
	<circle clip-path="url(#SVGID_2_)" fill="#CEF2FC" cx="1479" cy="62" r="7"/>
	<circle clip-path="url(#SVGID_2_)" fill="#CEF2FC" cx="1501" cy="122.8" r="8"/>
	<circle clip-path="url(#SVGID_2_)" fill="#CEF2FC" cx="1359.3" cy="183.5" r="5.5"/>
	<circle clip-path="url(#SVGID_2_)" fill="#CEF2FC" cx="73.1" cy="234.9" r="12.1"/>
	<circle clip-path="url(#SVGID_2_)" fill="#CEF2FC" cx="134" cy="294.4" r="7.4"/>
	<circle clip-path="url(#SVGID_2_)" fill="#CEF2FC" cx="155.2" cy="197.3" r="13.8"/>
	<circle clip-path="url(#SVGID_2_)" fill="#CEF2FC" cx="531.4" cy="211.6" r="6.4"/>
	<circle clip-path="url(#SVGID_2_)" fill="#CEF2FC" cx="539.2" cy="156.8" r="7.8"/>
</g>
</svg>
